<svg width="21" height="15" viewBox="0 0 21 15" fill="none" xmlns="http://www.w3.org/2000/svg">
<path d="M10.2307 4.6469L13.205 7.08043L13.2192 6.95296C13.2192 5.67438 11.9492 4.63531 10.3865 4.63531L10.2307 4.6469Z" fill="#A7A3FF"/>
<path d="M10.3865 3.09023C12.9926 3.09023 15.1077 4.82076 15.1077 6.953C15.1077 7.4513 14.985 7.92642 14.7725 8.3629L17.5344 10.6226C18.9602 9.6492 20.0838 8.38995 20.7778 6.953C19.1396 3.56151 15.1124 1.15886 10.3866 1.15886C9.06465 1.15886 7.79941 1.35199 6.62384 1.69964L8.66338 3.36448C9.19681 3.19453 9.77751 3.09023 10.3865 3.09023Z" fill="#A7A3FF"/>
<path d="M0.944215 0.985003L3.09706 2.74642L3.5267 3.09794C1.96872 4.09454 0.736499 5.41947 0 6.95297C1.63353 10.3445 5.66538 12.7471 10.3865 12.7471C11.8501 12.7471 13.2476 12.5153 14.527 12.0943L14.9283 12.4226L17.6808 14.6785L18.8847 13.6973L2.14811 0L0.944215 0.985003ZM6.16584 5.25336L7.62467 6.44696C7.58218 6.61307 7.55385 6.77914 7.55385 6.95297C7.55385 8.23155 8.82383 9.27062 10.3865 9.27062C10.599 9.27062 10.802 9.24744 11.0003 9.21268L12.4591 10.4063C11.8312 10.6612 11.1325 10.8157 10.3865 10.8157C7.78047 10.8157 5.66538 9.08521 5.66538 6.95297C5.66538 6.34266 5.85424 5.77096 6.16584 5.25336Z" fill="#A7A3FF"/>
</svg>
